<?xml version="1.0" standalone="no"?>
<!DOCTYPE svg PUBLIC "-//W3C//DTD SVG 20010904//EN"
 "http://www.w3.org/TR/2001/REC-SVG-20010904/DTD/svg10.dtd">
<svg version="1.0" xmlns="http://www.w3.org/2000/svg"
 width="500.000000pt" height="500.000000pt" viewBox="0 0 500.000000 500.000000"
 preserveAspectRatio="xMidYMid meet">
<metadata>
Created by potrace 1.16, written by Peter Selinger 2001-2019
</metadata>
<g transform="translate(0.000000,500.000000) scale(0.100000,-0.100000)"
fill="#000000" stroke="none">
<path d="M3740 2484 c-1 -21 -8 -68 -16 -104 -9 -36 -20 -90 -25 -120 -31
-171 -30 -168 -68 -202 -20 -19 -70 -56 -111 -84 -133 -89 -245 -161 -278
-178 -19 -10 -30 -21 -26 -28 4 -7 3 -8 -5 -4 -7 5 -29 -3 -51 -18 -22 -14
-43 -26 -47 -26 -11 -1 -60 -40 -50 -40 11 0 68 31 85 48 16 15 32 16 32 2 0
-5 -4 -10 -10 -10 -5 0 -31 -13 -57 -30 -26 -16 -44 -30 -39 -30 17 0 275 155
441 266 173 115 202 154 207 280 2 34 6 60 9 58 7 -4 21 247 14 254 -3 3 -5
-12 -5 -34z"/>
<path d="M3213 2153 c9 -14 -14 -31 -36 -27 -11 1 -36 -14 -60 -37 -86 -81
-257 -177 -361 -203 -15 -4 -26 -10 -23 -13 3 -3 27 2 53 11 55 19 89 22 64 6
-25 -16 6 -12 44 7 19 9 32 21 29 26 -4 6 -1 7 7 2 8 -5 20 1 32 16 11 13 17
18 13 12 -3 -7 -2 -13 3 -13 16 0 22 13 11 27 -9 9 -8 13 0 13 18 0 26 -4 23
-13 -3 -10 11 -2 66 38 23 17 42 37 42 45 1 22 27 53 34 41 4 -5 -2 -14 -11
-20 -10 -5 -15 -12 -12 -15 3 -3 27 16 53 43 34 34 44 51 35 56 -7 5 -10 4 -6
-2z"/>
<path d="M2979 1646 c-13 -7 -62 -34 -109 -59 -47 -25 -84 -51 -83 -56 2 -6
-3 -8 -11 -5 -7 3 -59 -16 -116 -41 -56 -25 -115 -49 -131 -52 -16 -3 -29 -9
-29 -14 0 -4 14 -4 30 1 18 5 30 5 30 -1 0 -5 -5 -9 -12 -9 -6 0 -9 -2 -6 -5
8 -9 118 37 112 46 -3 5 1 7 8 4 12 -5 341 154 361 174 4 4 2 13 -6 19 -10 8
-19 8 -38 -2z"/>
</g>
</svg>
