<?xml version="1.0" standalone="no"?>
<!DOCTYPE svg PUBLIC "-//W3C//DTD SVG 20010904//EN"
 "http://www.w3.org/TR/2001/REC-SVG-20010904/DTD/svg10.dtd">
<svg version="1.0" xmlns="http://www.w3.org/2000/svg"
 width="2048.000000pt" height="2048.000000pt" viewBox="0 0 2048.000000 2048.000000"
 preserveAspectRatio="xMidYMid meet">
<metadata>
Created by potrace 1.16, written by Peter Selinger 2001-2019
</metadata>
<g transform="translate(0.000000,2048.000000) scale(0.100000,-0.100000)"
fill="#000000" stroke="none">
<path d="M0 10240 l0 -10240 10240 0 10240 0 0 10240 0 10240 -10240 0 -10240
0 0 -10240z m15342 6798 c-14 -14 -16 -42 -2 -33 5 3 12 -6 16 -21 6 -23 8
-24 16 -9 7 11 6 21 -1 28 -16 16 -14 27 4 21 8 -4 13 -9 11 -13 -3 -4 -1 -13
5 -21 7 -12 9 -10 9 8 0 18 4 22 19 17 16 -5 19 -2 15 17 -2 13 -1 16 2 8 4
-8 12 -21 18 -29 8 -11 8 -13 -1 -7 -7 4 -13 3 -13 -2 0 -5 -14 -23 -30 -40
-17 -18 -30 -34 -29 -38 0 -3 -21 -29 -48 -59 -27 -29 -59 -67 -73 -85 -14
-18 -44 -53 -67 -78 -24 -25 -43 -50 -43 -54 0 -5 -26 -35 -59 -68 -32 -32
-65 -67 -72 -78 -15 -20 -115 -133 -210 -236 -31 -34 -71 -79 -90 -101 -19
-22 -42 -47 -51 -56 -10 -9 -18 -21 -18 -28 0 -6 -9 -16 -20 -23 -11 -7 -20
-24 -20 -38 0 -16 -3 -20 -8 -13 -5 9 -14 4 -27 -15 -11 -14 -35 -41 -52 -60
-33 -33 -43 -49 -21 -36 7 4 8 3 4 -4 -4 -7 -13 -12 -20 -12 -14 0 -30 -35
-26 -59 1 -7 -3 -10 -9 -6 -6 3 -11 1 -11 -4 0 -6 -6 -10 -12 -8 -7 1 -12 -6
-10 -15 2 -13 -2 -16 -14 -11 -11 4 -15 2 -11 -4 9 -14 -2 -45 -13 -38 -4 3
-15 -11 -24 -30 -11 -22 -22 -32 -31 -29 -10 4 -12 0 -8 -18 6 -21 5 -22 -10
-9 -15 12 -17 11 -17 -5 0 -16 -2 -17 -11 -4 -9 12 -10 11 -6 -7 3 -13 1 -26
-4 -29 -5 -3 -7 -10 -4 -15 4 -5 -1 -12 -9 -15 -9 -3 -16 -13 -16 -21 0 -8 -4
-12 -9 -9 -5 3 -16 -10 -25 -29 -9 -19 -21 -35 -26 -35 -6 0 -10 -7 -10 -16 0
-9 -11 -25 -25 -36 -14 -11 -23 -23 -20 -28 3 -4 -2 -13 -10 -20 -8 -7 -12
-17 -8 -24 3 -6 3 -8 -2 -4 -8 8 -25 -8 -61 -57 -10 -15 -31 -41 -46 -57 -16
-17 -28 -41 -28 -54 0 -13 -9 -29 -20 -36 -11 -7 -20 -18 -20 -25 0 -7 -7 -16
-15 -21 -22 -12 -13 -19 220 -167 265 -169 567 -371 685 -458 101 -74 278
-243 266 -254 -3 -4 -12 -1 -18 5 -20 20 -29 14 -10 -6 9 -10 23 -17 30 -14 9
3 11 -3 8 -24 -3 -15 0 -35 7 -43 9 -12 9 -13 0 -7 -7 4 -13 2 -13 -3 0 -10
14 -15 32 -12 4 0 5 -6 1 -15 -4 -11 -9 -12 -16 -5 -7 7 -15 7 -25 -2 -13 -10
-14 -8 -7 13 4 14 7 27 7 30 1 28 -4 40 -11 35 -5 -3 -12 3 -14 12 -4 16 -5
16 -6 1 0 -9 4 -20 9 -23 6 -3 10 -16 10 -28 0 -16 -6 -10 -23 22 -13 24 -46
69 -73 100 -27 30 -49 58 -49 62 0 4 -4 11 -9 16 -5 5 -6 3 -2 -4 11 -20 -9
-15 -27 5 -10 10 -14 22 -10 27 5 4 2 5 -5 1 -8 -5 -31 8 -60 32 -102 86 -787
532 -928 605 -25 13 -31 13 -31 2 0 -8 4 -12 9 -9 4 3 8 0 8 -6 0 -6 5 -8 12
-4 7 4 8 3 4 -4 -4 -6 -13 -9 -20 -6 -14 5 -46 -20 -46 -37 0 -6 -4 -7 -10 -4
-5 3 -10 1 -10 -5 0 -6 -4 -9 -9 -5 -5 3 -12 -4 -16 -15 -4 -11 -11 -17 -17
-14 -6 4 -8 -1 -4 -13 5 -14 -1 -23 -19 -33 -14 -7 -25 -22 -25 -32 0 -10 -3
-18 -7 -18 -5 0 -13 -11 -19 -24 -10 -21 -9 -24 5 -19 13 4 13 2 -1 -7 -10 -6
-18 -18 -18 -27 0 -13 -3 -13 -15 -3 -29 24 -24 4 8 -30 442 -478 720 -889
974 -1440 52 -112 114 -277 171 -450 155 -476 235 -973 235 -1460 -1 -671
-132 -1294 -398 -1896 -138 -311 -334 -656 -375 -659 -13 -1 -20 5 -20 17 0
16 3 17 20 8 14 -7 20 -7 20 0 0 5 -4 10 -10 10 -5 0 -10 5 -10 11 0 8 4 8 14
0 10 -8 16 -9 21 -1 3 5 1 10 -4 10 -6 0 -11 7 -11 16 0 12 3 14 13 6 8 -7 16
-6 25 4 7 8 11 14 10 15 -41 9 -60 6 -68 -14 -5 -12 -9 -16 -9 -9 -1 7 4 21
11 31 9 15 16 17 30 10 13 -7 18 -6 18 2 0 8 5 7 17 -2 15 -13 15 -12 4 9 -12
23 -31 30 -31 11 0 -5 -5 -7 -10 -4 -6 4 -1 23 15 48 13 23 28 40 32 37 5 -3
7 -9 5 -13 -1 -5 2 -6 8 -2 8 5 8 11 -1 21 -9 11 -3 28 27 81 181 327 340 725
432 1083 86 332 130 630 148 993 6 113 4 137 -7 138 -47 2 -190 -2 -225 -7
l-41 -6 -6 -133 c-46 -954 -377 -1823 -982 -2577 -301 -376 -691 -722 -1109
-983 -157 -98 -480 -266 -626 -326 -484 -200 -997 -319 -1490 -345 -63 -4
-131 -9 -150 -13 l-35 -7 -7 -77 c-4 -45 -13 -83 -21 -92 -12 -12 -17 -8 -36
29 -12 23 -25 64 -29 91 -7 49 -8 50 -47 57 -22 4 -110 11 -195 17 -580 39
-1179 200 -1689 455 -781 392 -1412 980 -1871 1746 -140 233 -299 586 -385
853 -124 384 -174 648 -210 1106 -8 107 -17 196 -20 199 -3 3 -5 -1 -5 -9 0
-10 -3 -11 -8 -2 -4 7 -54 14 -125 18 l-117 8 0 -124 c1 -351 89 -863 221
-1274 120 -377 308 -768 527 -1099 103 -155 252 -355 335 -449 48 -55 57 -71
46 -78 -12 -8 -12 -9 1 -7 8 1 96 -78 195 -177 99 -99 213 -209 252 -244 40
-35 70 -68 66 -74 -3 -5 -1 -7 5 -4 5 4 36 -15 69 -41 395 -328 884 -611 1362
-788 64 -24 97 -41 89 -45 -7 -5 -14 -4 -16 1 -2 6 -10 10 -18 10 -9 0 -12 -4
-9 -10 3 -5 1 -10 -4 -10 -6 0 -11 7 -11 15 0 9 -6 12 -17 8 -10 -4 -14 -2
-10 4 8 12 -14 23 -44 23 -10 0 -19 5 -19 10 0 6 -14 10 -31 10 -20 0 -28 -4
-23 -12 5 -7 3 -8 -5 -4 -7 5 -10 14 -7 22 3 9 -1 14 -12 14 -10 0 -22 4 -27
9 -6 5 -21 11 -35 13 -14 1 -31 8 -38 15 -7 7 -20 9 -29 6 -11 -4 -14 -3 -9 5
4 7 2 13 -3 13 -26 3 -30 4 -37 12 -15 14 -40 7 -41 -13 -1 -11 3 -20 9 -20 6
0 9 -2 6 -5 -27 -28 -801 426 -781 458 3 6 2 7 -4 4 -14 -9 -119 67 -115 82 1
7 -2 9 -8 6 -13 -8 -52 24 -44 36 3 5 -1 7 -8 4 -7 -2 -22 2 -33 11 -17 13
-18 16 -5 24 12 8 12 10 1 10 -7 0 -11 6 -8 15 5 11 1 12 -19 5 -23 -9 -37 0
-152 98 -182 154 -285 255 -449 442 -690 783 -1071 1654 -1179 2695 -22 208
-25 663 -5 835 63 571 174 1002 386 1505 28 67 174 355 223 440 275 478 603
876 1013 1226 357 305 610 474 998 668 200 101 240 118 465 202 447 166 920
266 1424 299 213 14 303 14 511 1 601 -40 1093 -150 1617 -361 145 -59 449
-208 599 -295 108 -63 388 -247 502 -332 78 -58 81 -59 80 -40 -1 36 4 47 23
47 12 0 32 11 46 25 14 14 30 23 35 20 5 -4 9 5 9 19 0 14 3 25 8 24 4 0 14 2
22 5 8 3 24 7 35 10 11 2 19 9 17 16 -2 9 3 11 13 8 82 -32 -149 118 -415 268
-85 48 -240 136 -345 195 -450 255 -1256 676 -1571 821 -540 248 -783 339
-905 339 -167 0 -568 -165 -1324 -545 -572 -288 -718 -367 -1335 -723 -615
-355 -1141 -674 -1540 -933 -375 -245 -525 -369 -587 -486 -71 -132 -115 -375
-168 -928 -87 -912 -116 -1967 -75 -2735 16 -298 20 -381 25 -450 3 -36 10
-139 15 -230 36 -564 118 -1139 180 -1260 33 -65 169 -198 309 -303 204 -152
397 -282 941 -630 69 -44 267 -165 440 -269 173 -105 316 -191 317 -192 1 -1
-8 -2 -22 -2 -13 0 -22 3 -20 6 3 4 -7 13 -21 21 -22 11 -27 11 -36 -1 -8 -12
-9 -11 -4 3 4 13 0 20 -14 24 -11 3 -20 9 -20 14 0 5 -5 9 -11 9 -5 0 -7 -4
-4 -10 3 -6 -1 -10 -9 -10 -9 0 -13 6 -10 14 6 15 -31 46 -55 46 -11 0 -10 -4
5 -16 18 -14 18 -15 -4 -4 -13 7 -21 17 -18 25 6 18 -25 29 -36 13 -6 -9 -8
-7 -6 7 3 17 -2 20 -27 18 -22 -2 -25 0 -12 5 16 7 15 9 -10 22 -15 8 -37 23
-47 33 -24 21 -40 22 -33 3 4 -10 1 -13 -8 -10 -8 3 -11 12 -9 19 3 7 -4 18
-15 24 -25 14 -31 14 -31 1 0 -5 8 -10 17 -10 9 0 13 -3 10 -7 -4 -3 -18 0
-32 7 -18 10 -22 16 -13 21 21 13 1 21 -22 9 -22 -12 -21 -13 21 -39 24 -16
77 -47 117 -71 40 -23 71 -45 68 -47 -5 -5 -236 134 -256 155 -14 14 -13 15 3
2 15 -11 20 -11 35 5 9 10 11 15 4 11 -7 -4 -21 -4 -33 -1 -15 5 -17 10 -9 20
8 10 2 18 -25 34 -43 25 -49 26 -41 5 3 -9 2 -12 -4 -9 -6 4 -9 14 -8 22 2 9
-3 18 -9 20 -7 3 -13 0 -13 -5 0 -6 -10 -7 -22 -4 -23 6 -23 6 2 13 l25 6 -25
11 c-14 5 -42 22 -64 36 -21 15 -41 24 -45 20 -3 -4 -1 -9 5 -11 6 -2 20 -10
30 -18 17 -13 18 -14 2 -15 -10 0 -18 5 -18 10 0 6 -4 10 -10 10 -18 0 -11
-18 10 -25 11 -3 20 -11 20 -16 0 -5 -21 3 -47 18 -61 35 -333 213 -333 218 0
3 28 -11 82 -42 21 -12 48 -8 48 8 0 4 -14 16 -30 26 -17 9 -30 21 -30 25 0 4
-6 8 -14 8 -8 0 -16 3 -18 8 -5 12 -167 112 -181 111 -8 0 -7 -2 2 -6 11 -5
11 -7 0 -14 -11 -6 -9 -12 9 -26 63 -48 70 -60 15 -23 -35 22 -63 43 -63 46 0
3 4 3 9 -1 5 -3 12 -1 15 4 3 5 -2 12 -11 15 -9 4 -19 2 -23 -3 -6 -11 -24 0
-222 136 -223 154 -283 203 -266 215 9 7 7 8 -7 4 -38 -10 -216 178 -255 269
-88 204 -160 851 -215 1920 -23 455 -29 913 -16 1365 12 459 12 439 46 945 54
773 120 1244 196 1402 12 25 49 74 82 110 113 121 267 234 692 508 307 199
387 248 830 510 519 306 953 556 1170 672 624 335 1247 644 1565 776 373 155
505 181 682 134 164 -44 487 -180 883 -372 110 -53 229 -111 264 -127 70 -34
722 -375 917 -481 127 -68 716 -401 914 -517 142 -83 184 -105 176 -91 -4 6
-2 11 3 11 6 0 11 7 11 15 0 9 6 12 15 9 8 -4 15 -1 15 6 0 6 5 8 10 5 6 -3
10 -1 10 4 0 6 7 11 15 11 8 0 15 5 15 10 0 6 14 10 30 10 21 0 30 5 30 16 0
18 17 37 42 47 12 4 15 12 11 24 -6 15 -4 16 9 5 14 -11 17 -10 23 8 3 11 11
18 16 15 5 -4 12 1 15 9 3 9 10 13 15 10 5 -3 9 1 9 9 0 13 38 46 57 49 5 0
14 9 21 19 7 11 23 19 35 19 18 0 19 2 7 10 -10 6 -11 10 -2 10 6 0 12 7 12
15 0 8 5 15 10 15 6 0 15 10 20 23 8 20 9 20 9 2 1 -16 5 -14 21 13 11 17 27
32 36 32 14 0 103 82 104 95 0 3 0 10 0 16 0 5 5 7 10 4 6 -3 10 1 10 10 0 9
5 13 11 10 9 -6 89 71 89 87 0 4 9 10 20 13 11 3 20 11 20 16 0 6 43 53 95
106 52 53 92 100 88 106 -3 6 -2 7 4 4 10 -6 173 158 173 174 0 5 5 9 10 9 13
0 37 25 95 95 25 31 65 76 88 100 118 120 205 215 227 248 14 20 28 37 32 37
10 0 138 132 138 142 0 5 6 8 14 8 8 0 16 7 20 15 3 8 11 15 18 15 9 0 9 -3 0
-12z m-133 -3689 c-11 -7 -9 -9 6 -9 19 -1 19 -1 2 -14 -17 -13 -17 -15 4 -35
25 -23 33 -22 23 3 -3 9 -10 13 -16 10 -5 -3 -4 3 3 14 7 12 15 19 17 18 2 -2
5 -30 7 -63 3 -32 8 -88 13 -125 6 -51 5 -65 -3 -58 -8 7 -12 1 -12 -20 0 -24
3 -27 14 -19 10 9 13 6 13 -15 0 -14 -5 -26 -11 -26 -5 0 -7 5 -4 10 3 6 1 10
-4 10 -7 0 -9 -20 -6 -52 4 -38 2 -49 -5 -38 -6 8 -9 36 -8 62 1 26 -1 51 -5
55 -4 3 -7 -11 -7 -32 0 -77 -9 -26 -25 144 -16 173 -15 208 6 195 8 -4 7 -9
-2 -15z m132 -1316 c18 -367 21 -854 9 -1216 -6 -202 -13 -376 -15 -385 -2 -9
-4 -45 -4 -80 -1 -36 -5 -61 -10 -57 -5 3 -12 1 -16 -5 -3 -5 -1 -10 6 -10 15
0 4 -322 -11 -349 -5 -9 -10 -11 -10 -6 0 6 -4 4 -9 -4 -5 -8 -7 -21 -3 -29 4
-13 7 -12 13 4 6 14 8 9 8 -19 1 -34 -1 -37 -14 -23 -8 8 -15 19 -15 25 0 6
-4 11 -10 11 -5 0 -10 -15 -10 -32 0 -25 3 -29 10 -18 8 13 10 12 10 -4 0 -12
5 -16 15 -12 8 3 15 0 15 -7 0 -7 -9 -13 -19 -13 -11 0 -17 4 -15 8 3 4 1 8
-4 8 -20 0 -23 -96 -3 -109 10 -8 10 -41 -1 -41 -4 0 -8 10 -8 21 0 19 -2 20
-17 8 -11 -9 -14 -10 -9 -2 4 7 9 45 11 85 5 106 17 289 21 318 1 14 3 58 3
98 1 45 5 72 12 72 6 0 8 -7 5 -16 -5 -14 -4 -15 8 -5 15 13 11 45 -5 35 -5
-3 -9 2 -9 11 0 10 5 13 13 9 9 -6 9 -4 -1 8 -10 12 -11 50 -5 164 5 82 8 496
8 919 0 424 1 751 3 728 2 -23 9 -44 17 -47 11 -4 12 3 8 31 -4 23 -2 34 4 30
5 -3 10 0 10 7 0 8 -6 12 -14 9 -8 -3 -13 3 -13 18 0 19 2 21 10 9 8 -12 10
-10 10 9 0 13 3 21 6 18 4 -4 10 -82 15 -174z m-1061 -3258 c0 -15 -177 -261
-243 -337 -47 -55 -80 -70 -91 -41 -3 7 1 10 10 6 10 -4 12 0 8 12 -5 13 -3
16 7 13 8 -3 13 -14 11 -24 -2 -16 -1 -17 8 -4 7 11 5 19 -10 32 -26 21 -26
31 0 23 12 -4 20 -2 20 5 0 6 -4 8 -10 5 -5 -3 -10 1 -10 9 0 23 16 20 34 -6
9 -12 18 -19 21 -17 2 3 -4 15 -16 27 l-20 22 21 30 c22 31 44 41 34 15 -4 -8
-10 -13 -14 -10 -15 9 -17 -32 -3 -51 12 -16 15 -17 23 -4 15 23 12 34 -5 20
-12 -10 -15 -9 -15 4 0 10 5 14 10 11 6 -3 11 2 11 12 1 17 2 17 6 1 5 -19 23
-25 23 -9 0 5 6 16 13 23 36 39 40 47 26 66 -11 14 -11 15 1 4 12 -10 18 -7
37 14 28 32 31 54 4 30 -11 -10 -25 -14 -36 -10 -14 6 -16 4 -10 -6 5 -9 4
-11 -3 -6 -7 4 -12 2 -12 -5 0 -7 -3 -10 -6 -7 -3 4 10 29 30 57 19 28 37 47
41 41 3 -5 2 -10 -3 -10 -10 0 -35 -50 -28 -57 8 -9 33 21 28 35 -2 6 1 12 7
12 6 0 11 -7 11 -15 0 -27 17 -15 35 25 10 22 22 40 27 40 4 0 8 7 8 15 0 8 5
15 10 15 6 0 10 -2 10 -5z m-5220 -1974 c220 -57 450 -102 650 -126 154 -19
413 -35 449 -28 14 2 76 2 136 -2 101 -6 111 -9 112 -26 1 -12 -3 -18 -10 -16
-7 3 -11 9 -10 15 2 6 -4 9 -12 6 -16 -6 -16 -25 0 -36 6 -4 -3 -8 -18 -8 -16
0 -26 4 -22 10 10 16 -5 12 -22 -6 -14 -14 -35 -15 -157 -9 -78 4 -159 9 -181
11 -22 1 -80 6 -130 9 -49 4 -96 7 -102 7 -7 1 -13 8 -13 17 0 12 3 12 12 3
14 -14 62 -16 53 -2 -3 6 1 10 9 10 9 0 16 4 16 10 0 5 -12 9 -27 8 -16 -1
-37 2 -47 7 -13 6 -17 5 -12 -3 7 -11 -31 -28 -41 -18 -4 3 1 6 10 6 9 0 17 4
17 8 0 5 -60 19 -134 30 -154 25 -159 26 -151 12 3 -5 -1 -10 -10 -10 -9 0
-13 5 -10 10 6 10 -6 14 -39 10 -11 -1 -15 3 -12 9 5 7 -2 11 -16 11 -18 0
-20 -2 -8 -10 8 -5 11 -10 7 -10 -4 0 -19 7 -33 16 -20 14 -30 15 -50 5 -26
-11 -24 -31 2 -31 8 0 13 4 9 9 -8 15 15 25 28 12 8 -8 8 -11 -1 -11 -7 0 -12
-4 -12 -9 0 -6 8 -10 18 -10 9 0 39 -4 67 -9 27 -5 55 -7 62 -5 7 3 13 0 13
-6 0 -6 15 -12 33 -12 19 -1 24 -3 11 -6 -25 -5 -336 55 -348 67 -11 11 38 6
68 -6 14 -5 17 -4 12 4 -4 7 -2 12 3 12 6 0 11 5 11 10 0 6 -7 10 -15 10 -8 0
-15 -4 -15 -10 0 -5 -4 -10 -10 -10 -5 0 -7 8 -4 18 5 16 5 16 -6 0 -12 -20
-44 -13 -36 8 3 8 1 14 -3 14 -5 0 -16 3 -25 6 -9 3 -16 1 -16 -5 0 -6 7 -11
15 -11 8 0 15 -4 15 -9 0 -4 -11 -6 -25 -3 -14 2 -22 8 -19 13 3 5 -1 9 -9 9
-27 0 -13 -28 16 -34 17 -3 28 -9 24 -12 -10 -10 -68 7 -64 19 2 7 -5 18 -17
25 -21 13 -20 13 3 6 17 -4 22 -2 19 7 -3 8 -9 14 -14 15 -5 0 -21 6 -35 12
-15 6 -45 16 -68 22 -22 6 -41 13 -41 16 0 3 8 3 18 0 9 -3 69 -19 132 -35z
m-2142 -1759 l-3 -117 -432 -3 -433 -2 -1 -270 c0 -149 -1 -283 -1 -300 0 -78
-51 -70 437 -70 l436 0 -2 -120 -1 -120 -447 0 c-496 0 -519 2 -588 63 -20 17
-47 54 -59 82 -24 50 -24 54 -24 418 0 286 3 375 13 400 33 77 119 143 203
155 26 4 240 6 476 4 l429 -2 -3 -118z m-2538 -2 l0 -120 -390 0 -390 0 0
-100 0 -100 315 0 315 0 0 -120 0 -120 -315 0 -315 0 -2 -217 -3 -218 -127 -3
-128 -3 0 561 0 560 520 0 520 0 0 -120z m1078 105 c47 -20 107 -78 135 -130
21 -39 22 -49 22 -420 l0 -380 -29 -48 c-35 -58 -80 -94 -142 -113 -68 -20
-720 -20 -788 0 -68 21 -114 60 -145 125 l-26 56 0 360 c0 413 1 422 81 495
77 71 67 69 482 70 314 0 378 -2 410 -15z m1874 -422 l3 -438 308 -3 307 -2 0
440 0 440 125 0 125 0 0 -465 c0 -513 1 -507 -63 -573 -18 -19 -50 -43 -72
-55 -39 -21 -53 -22 -397 -25 -224 -2 -372 1 -396 7 -69 19 -129 67 -159 129
l-28 57 -3 463 -3 462 126 0 125 0 2 -437z m2013 418 c95 -44 147 -128 149
-241 l1 -75 -111 -3 c-127 -4 -144 4 -144 64 l0 34 -307 -2 -308 -3 0 -95 0
-95 350 -5 c387 -6 379 -4 448 -74 62 -61 72 -95 75 -254 4 -169 -8 -219 -66
-274 -78 -75 -65 -73 -476 -76 -406 -3 -426 -1 -498 58 -54 45 -77 100 -79
195 l-2 80 44 3 c24 2 81 1 127 -3 l82 -7 0 -44 0 -44 308 2 307 3 3 97 3 97
-348 3 c-334 3 -350 4 -388 24 -54 29 -94 70 -116 119 -15 33 -19 66 -19 196
0 146 1 158 25 206 15 28 41 63 60 78 72 54 72 54 470 54 340 1 373 -1 410
-18z m1796 4 c24 -9 61 -33 83 -53 57 -55 76 -103 76 -195 l0 -78 -122 3 -123
3 -3 48 -3 47 -315 0 -315 0 3 -97 3 -98 350 -5 c388 -6 390 -6 460 -75 57
-58 65 -86 66 -259 0 -145 -1 -160 -24 -210 -14 -30 -40 -65 -59 -79 -71 -55
-90 -57 -481 -57 -253 0 -372 4 -401 12 -55 16 -138 99 -154 154 -7 23 -12 71
-12 108 l0 66 103 0 c142 0 147 -2 147 -56 l0 -44 315 0 315 0 0 100 0 100
-331 0 c-230 0 -344 4 -373 12 -61 18 -149 109 -164 170 -15 58 -16 270 -2
320 16 57 69 119 129 150 l53 28 368 0 c306 0 375 -3 411 -15z m1409 -105 l0
-120 -220 0 -220 0 0 -440 0 -440 -125 0 -125 0 0 440 0 440 -215 0 -215 0 0
120 0 120 560 0 560 0 0 -120z m382 -317 l3 -438 313 -3 312 -2 0 440 0 440
130 0 131 0 -3 -467 c-3 -434 -4 -471 -22 -503 -26 -49 -74 -98 -121 -123 -39
-21 -53 -22 -406 -25 -348 -3 -368 -2 -421 18 -65 24 -113 69 -142 130 -20 43
-21 62 -24 508 l-3 462 126 0 125 0 2 -437z m2063 415 c47 -25 106 -89 129
-138 20 -43 21 -59 21 -405 0 -359 0 -360 -24 -408 -13 -26 -42 -63 -64 -82
-74 -63 -89 -65 -599 -65 l-458 0 0 560 0 561 483 -3 c426 -3 485 -5 512 -20z
m585 -538 l0 -560 -130 0 -130 0 0 560 0 560 130 0 130 0 0 -560z m1136 539
c50 -24 99 -76 125 -133 17 -37 19 -73 19 -397 0 -386 -2 -406 -56 -476 -14
-18 -49 -46 -77 -61 l-52 -27 -380 0 -381 0 -49 26 c-62 32 -110 93 -124 159
-7 31 -11 180 -11 379 0 376 4 402 71 471 78 80 75 80 498 80 359 0 377 -1
417 -21z m592 -753 c66 -35 105 -99 106 -176 2 -164 -192 -248 -313 -136 -62
58 -78 142 -42 221 31 69 89 104 169 105 29 0 65 -6 80 -14z m2086 -2857 c21
-66 74 -154 131 -218 61 -67 236 -171 289 -171 9 0 16 -8 16 -17 0 -13 -17
-23 -61 -37 -66 -21 -154 -74 -218 -131 -67 -61 -171 -236 -171 -289 0 -9 -8
-16 -17 -16 -13 0 -23 17 -37 61 -21 66 -74 154 -131 218 -61 67 -236 171
-289 171 -9 0 -16 8 -16 18 0 12 17 22 61 36 66 21 154 74 218 131 67 61 171
236 171 289 0 9 8 16 18 16 12 0 22 -17 36 -61z"/>
<path d="M9830 15989 c-357 -31 -858 -139 -1170 -252 -483 -176 -914 -406
-1270 -678 -603 -459 -1067 -1019 -1380 -1664 -116 -239 -179 -391 -254 -622
-123 -377 -211 -855 -223 -1213 l-6 -176 74 4 c41 2 86 8 100 13 14 6 40 11
57 11 36 1 37 4 47 183 16 260 70 587 145 880 120 469 306 876 609 1335 290
439 725 871 1181 1174 210 139 251 163 467 271 254 126 342 164 550 235 397
136 788 214 1221 244 144 10 196 17 203 27 5 8 9 39 10 69 1 30 2 70 3 89 1
18 -4 39 -12 47 -11 12 -11 14 2 14 9 0 16 5 16 10 0 12 -228 11 -370 -1z"/>
<path d="M10284 15978 c3 -13 6 -71 6 -130 l0 -108 69 0 c37 0 126 -5 197 -10
819 -65 1544 -316 2257 -784 15 -10 27 -14 27 -8 0 6 -9 14 -20 17 -11 3 -20
11 -20 16 0 6 13 1 29 -10 15 -11 31 -18 35 -14 3 3 6 1 6 -5 0 -6 12 -9 30
-7 17 2 30 -1 30 -6 0 -5 7 -9 16 -9 8 0 13 4 10 9 -4 5 3 7 14 4 11 -3 20 -9
20 -14 0 -5 10 -3 23 5 12 7 32 12 45 10 12 -2 22 0 22 5 0 4 10 12 21 17 20
9 20 11 5 26 -15 15 -15 17 4 23 12 4 27 1 35 -5 11 -9 15 -9 15 -1 0 13 -228
184 -350 263 -438 282 -1030 527 -1530 633 -290 61 -659 105 -884 105 -118 0
-118 0 -112 -22z"/>
<path d="M10065 15603 c-198 -5 -512 -44 -750 -93 -641 -132 -1304 -449 -1813
-867 -395 -325 -710 -692 -982 -1144 -343 -569 -548 -1265 -577 -1950 l-6
-156 84 -3 c46 -2 136 -4 199 -4 l115 -1 7 65 c4 36 12 135 18 220 43 597 258
1220 606 1757 154 237 308 427 514 633 408 409 932 731 1499 920 362 120 678
179 1114 206 l107 6 0 192 c0 105 -4 196 -8 202 -11 17 -31 19 -127 17z"/>
<path d="M10295 15578 c-3 -13 -4 -104 -3 -203 l3 -180 155 -12 c786 -61 1399
-267 2021 -679 117 -77 160 -100 144 -74 -3 6 1 10 10 10 8 0 20 11 25 25 5
14 14 25 20 25 6 0 8 5 4 12 -5 8 -2 9 9 5 9 -3 16 -3 16 1 -3 20 3 32 16 32
8 0 15 6 15 14 0 8 7 16 15 20 8 3 15 9 14 13 -4 25 2 63 10 59 16 -10 21 23
6 38 -16 16 -20 28 -7 24 8 -3 12 5 12 27 0 8 -6 15 -14 15 -8 0 -17 7 -20 16
-4 10 -2 13 7 8 8 -5 8 -2 -2 9 -7 9 -17 14 -22 11 -5 -3 -9 2 -9 10 0 9 -5
16 -11 16 -6 0 -17 7 -25 15 -22 21 -5 19 35 -6 65 -40 38 -13 -46 46 -340
237 -820 457 -1263 580 -294 81 -731 145 -990 145 -116 0 -120 -1 -125 -22z"/>
<path d="M9967 15099 c-601 -39 -1212 -232 -1731 -546 -602 -365 -1101 -905
-1415 -1530 -171 -343 -309 -769 -361 -1119 -23 -160 -48 -500 -36 -511 4 -5
101 -10 214 -11 121 -2 212 -8 220 -14 15 -13 16 -40 0 -56 -9 -9 -73 -12
-225 -12 l-213 0 0 -97 c0 -357 91 -805 247 -1213 133 -351 387 -790 596
-1033 41 -48 48 -61 36 -69 -11 -8 -11 -9 3 -4 13 4 32 -10 65 -47 107 -118
335 -338 431 -416 56 -46 102 -89 101 -95 0 -7 -3 -6 -6 2 -2 6 -12 12 -21 12
-14 -1 -13 -4 5 -19 15 -13 19 -21 11 -29 -7 -7 -4 -14 11 -21 12 -7 21 -8 22
-4 0 4 4 -2 10 -15 11 -28 26 -22 24 10 -1 13 -11 27 -23 33 -12 5 -22 15 -22
22 0 10 170 -103 245 -163 17 -13 18 -15 2 -10 -11 4 -16 2 -12 -5 4 -6 14 -8
22 -5 12 5 253 -129 253 -140 0 -2 -11 1 -25 6 -15 6 -26 6 -30 0 -4 -6 1 -10
9 -10 9 0 16 -4 16 -10 0 -5 -23 3 -50 17 -40 20 -49 30 -45 45 4 12 1 18 -9
18 -9 0 -16 5 -16 10 0 22 -15 8 -16 -15 -1 -14 2 -25 8 -25 5 0 6 5 3 10 -3
6 1 10 9 10 13 0 14 -3 4 -19 -7 -11 -17 -17 -23 -14 -5 4 -43 28 -83 55 -41
26 -76 48 -78 48 -6 0 -18 9 -207 150 -227 169 -395 324 -592 544 -201 225
-409 533 -545 805 -229 459 -379 1011 -396 1451 -3 80 -7 165 -10 189 l-6 44
-186 -8 c-103 -4 -195 -7 -205 -7 -16 1 -17 -9 -12 -111 32 -635 175 -1198
441 -1729 381 -762 935 -1354 1689 -1807 554 -333 1333 -567 1958 -588 l177
-6 0 212 0 211 -99 0 c-55 0 -102 4 -105 8 -3 5 10 8 29 7 24 -2 32 2 28 12
-3 8 3 13 18 14 17 1 14 4 -11 9 -26 5 -12 8 53 9 l87 1 0 208 c0 214 3 232
41 232 35 0 40 -25 45 -227 3 -109 9 -210 14 -224 4 -14 4 -32 -1 -40 -5 -8
-9 -107 -9 -221 l0 -208 98 0 c289 0 736 74 1090 181 701 211 1280 557 1805
1077 691 684 1124 1559 1242 2508 16 126 40 463 34 468 -2 2 -95 6 -205 9
-231 7 -214 14 -214 -92 0 -47 -2 -52 -15 -41 -13 11 -14 10 -9 -4 3 -9 10
-16 15 -16 5 0 9 -5 9 -11 0 -7 -11 -9 -27 -5 -16 3 -22 3 -15 0 14 -6 17 -34
3 -34 -5 0 -11 6 -14 13 -2 6 -4 -17 -5 -53 0 -36 -5 -81 -11 -100 -7 -26 -8
-3 -4 90 4 69 7 154 7 190 l1 65 -225 5 c-124 3 -226 7 -227 8 -11 9 1 53 16
62 12 6 103 10 225 10 l206 0 0 78 c0 417 -118 939 -317 1402 -68 157 -201
395 -326 585 -124 187 -426 536 -435 504 -3 -8 -19 -27 -36 -43 -17 -16 -30
-33 -29 -37 1 -4 -9 -10 -22 -13 -14 -4 -25 -11 -25 -17 0 -6 5 -7 12 -3 7 4
8 3 4 -5 -4 -6 -12 -9 -17 -6 -5 4 -9 1 -9 -4 0 -6 -7 -11 -16 -11 -10 0 -14
-6 -11 -14 4 -10 1 -13 -9 -9 -8 3 -14 -1 -14 -11 0 -9 -6 -16 -14 -16 -8 0
-14 -6 -13 -12 1 -34 -5 -47 -23 -53 -11 -4 -18 -10 -15 -15 3 -4 -2 -10 -10
-14 -8 -3 -15 -12 -15 -20 0 -10 -6 -13 -15 -10 -9 4 -15 1 -15 -7 0 -8 -18
-29 -40 -48 -22 -18 -37 -37 -34 -42 3 -5 -4 -9 -15 -9 -12 0 -21 -7 -21 -16
0 -20 -25 -45 -35 -36 -5 4 -5 2 -1 -5 4 -7 -4 -22 -19 -35 -14 -12 -25 -28
-25 -36 0 -9 -3 -13 -6 -9 -7 7 -34 -17 -34 -31 0 -6 -7 -13 -16 -16 -9 -4
-14 -9 -11 -12 6 -7 -52 -64 -65 -64 -5 0 -8 -7 -8 -16 0 -8 -4 -13 -9 -9 -10
6 -37 -34 -33 -47 1 -5 -4 -8 -11 -8 -7 0 -17 3 -23 8 -5 4 39 -42 98 -102
104 -106 108 -111 108 -153 0 -90 27 -121 137 -157 28 -10 63 -26 77 -37 37
-29 246 -306 287 -379 8 -16 15 -73 19 -156 l5 -131 90 -97 c137 -148 136
-146 144 -281 6 -96 11 -120 29 -145 13 -17 34 -46 47 -66 l25 -37 0 -352 c0
-194 -5 -399 -11 -456 -9 -96 -14 -111 -57 -188 -45 -80 -166 -235 -255 -329
-51 -52 -84 -62 -216 -62 l-103 0 7 -37 c12 -68 6 -265 -10 -328 -32 -119
-111 -242 -245 -376 -74 -74 -321 -248 -450 -315 l-55 -29 -305 0 c-299 0
-306 0 -350 23 -25 13 -122 86 -215 163 -94 77 -198 161 -233 186 -90 65 -132
162 -132 304 0 75 13 89 64 69 33 -12 346 -13 378 -1 13 5 82 55 153 111 l130
102 550 -4 550 -4 3 -22 3 -22 -524 0 -524 0 -44 -23 c-24 -12 -85 -55 -135
-94 -140 -112 -146 -114 -353 -107 l-174 5 6 -74 c4 -41 11 -85 16 -99 5 -13
67 -71 138 -128 70 -57 146 -121 169 -142 61 -57 154 -128 197 -149 35 -19 57
-20 325 -17 334 3 283 -11 519 144 169 111 237 172 334 297 90 116 126 193
140 298 12 84 9 235 -5 257 -10 17 -1227 17 -1259 1 -12 -7 -60 -42 -107 -79
-47 -37 -103 -79 -125 -93 l-40 -26 -415 -3 c-469 -4 -448 -1 -566 -90 -32
-23 -63 -46 -68 -50 -16 -11 99 -174 174 -248 45 -44 101 -84 174 -125 60 -33
120 -74 133 -91 14 -17 70 -111 125 -210 55 -98 148 -264 208 -369 136 -239
185 -338 177 -359 -4 -9 -18 -16 -35 -16 -31 0 3 -56 -337 549 -168 299 -206
362 -225 372 -48 25 -202 118 -243 147 -47 34 -130 135 -196 240 -18 28 -35
52 -38 52 -3 0 -28 -20 -56 -45 -100 -88 -84 -85 -506 -85 l-373 0 -72 69
c-77 74 -245 221 -287 252 -26 18 -27 18 -32 -1 -5 -20 -27 -28 -27 -10 0 6 4
10 8 10 24 0 3 42 -49 97 -67 69 -60 38 -63 303 -1 114 -4 129 -24 154 -23 30
-21 49 3 39 12 -4 15 6 15 54 0 50 5 66 29 99 54 73 556 563 591 577 19 8 76
18 125 21 156 11 205 18 205 28 0 5 -10 7 -22 4 l-23 -6 23 12 c13 6 21 17 18
25 -3 7 -1 13 4 13 6 0 10 7 10 16 0 14 3 14 15 4 12 -10 15 -9 16 6 1 11 1
22 0 27 0 4 5 7 13 7 8 0 17 6 19 13 4 9 8 9 15 -2 7 -10 11 -1 13 33 2 25 1
46 -3 46 -5 0 -8 5 -8 11 0 5 5 7 12 3 7 -5 8 -3 4 5 -5 7 -14 10 -22 7 -8 -3
-11 0 -8 8 3 7 -26 44 -65 82 -53 52 -70 76 -71 99 -1 17 -2 345 -1 729 l1
699 188 186 c103 102 195 191 203 197 8 6 27 19 42 28 l27 18 15 -36 c24 -56
20 -64 -31 -72 -44 -6 -56 -16 -208 -171 -88 -90 -164 -172 -168 -181 -4 -9
-7 -325 -7 -702 l-1 -686 41 -39 c26 -25 39 -33 35 -21 -5 16 -4 17 9 6 16
-13 50 -6 41 9 -3 5 3 11 14 14 11 3 19 11 18 19 -2 8 6 13 19 12 13 -1 21 2
18 6 -2 3 4 13 13 22 9 8 24 25 32 37 8 12 20 19 26 17 8 -3 10 10 7 41 -2 27
0 42 6 38 6 -3 7 -13 4 -23 -4 -11 1 -9 15 7 19 20 22 41 6 41 -3 0 -2 -4 1
-10 3 -5 -1 -10 -10 -10 -12 0 -15 6 -10 23 8 24 8 23 6 55 0 12 -5 22 -9 22
-5 0 -7 -14 -4 -30 5 -38 -20 -77 -60 -94 -38 -16 -60 -11 -89 20 -32 35 -31
86 4 122 l27 28 0 538 c0 442 2 542 14 564 16 30 163 176 213 210 71 50 88 5
21 -55 -105 -93 -178 -178 -184 -212 -4 -19 -4 -263 0 -541 7 -491 8 -506 28
-525 l20 -20 -15 31 c-13 25 -13 31 -2 31 8 0 12 -3 10 -7 -2 -4 6 -21 19 -39
20 -27 25 -29 36 -17 6 9 8 21 4 28 -5 10 -4 11 7 1 18 -17 29 -16 29 3 0 8 4
13 9 9 5 -3 11 2 13 12 3 15 4 16 20 0 17 -17 33 -23 25 -9 -3 4 -1 16 4 27 6
17 8 17 8 3 1 -10 6 -18 12 -18 6 0 9 7 5 15 -3 10 1 15 12 15 14 0 15 2 2 9
-8 6 -18 7 -22 5 -4 -3 -8 2 -8 10 0 9 7 16 16 16 8 0 12 -4 9 -10 -3 -5 -2
-10 3 -10 6 0 12 6 15 13 3 9 25 14 58 16 29 1 55 4 58 6 8 9 -72 5 -157 -7
-70 -9 -85 -9 -92 3 -14 22 7 38 80 60 49 14 88 19 146 17 l79 -3 -3 -30 c-2
-22 0 -26 7 -15 5 8 8 17 5 21 -4 7 20 19 38 19 6 0 8 -9 5 -20 -7 -26 -4 -25
29 5 21 20 30 22 41 14 11 -10 13 10 11 131 l-3 144 -100 77 -100 76 0 179 0
178 125 113 125 113 7 92 c9 106 -21 65 248 343 132 136 152 160 132 163 -29
4 -128 -25 -168 -49 -46 -28 -59 -24 -85 25 -35 68 -62 76 -240 76 -255 0
-759 -29 -791 -46 -15 -8 -73 -55 -128 -104 -112 -100 -85 -92 -340 -110 -85
-6 -201 -16 -258 -22 l-102 -11 -217 -204 c-119 -113 -226 -211 -237 -218 -12
-8 -48 -17 -81 -20 -33 -4 -72 -11 -86 -16 -14 -6 -109 -97 -211 -204 l-186
-194 -7 -124 -7 -123 -61 -65 c-102 -106 -219 -243 -227 -265 -5 -12 -13 -62
-19 -112 -5 -49 -19 -121 -31 -159 -20 -66 -21 -87 -18 -435 l3 -365 80 -89
c44 -49 85 -95 92 -102 7 -7 39 -15 72 -19 l59 -5 13 41 c16 53 37 71 87 73
47 1 74 -16 70 -46 -2 -16 -11 -20 -38 -21 -31 0 -35 -3 -38 -30 -6 -64 -10
-72 -39 -71 -25 1 -28 -2 -26 -29 1 -23 19 -46 80 -103 43 -41 101 -84 128
-98 49 -24 53 -24 360 -24 171 0 315 -4 322 -8 7 -4 11 -17 10 -29 0 -12 -4
-20 -8 -17 -4 2 -9 -2 -11 -8 -6 -17 -635 -25 -690 -8 -48 14 -228 156 -256
203 -16 25 -22 50 -22 92 l0 57 -32 -6 c-115 -22 -110 -23 -155 35 -23 30 -58
72 -78 94 -73 80 -69 59 -73 486 -4 372 -3 388 18 455 12 38 25 118 30 177 9
106 10 111 48 160 22 29 89 104 149 168 l110 117 6 111 c4 61 12 122 18 134
27 51 380 417 426 440 16 9 58 19 94 23 35 3 73 11 84 17 11 5 115 103 230
217 172 170 216 208 245 213 61 11 259 28 421 36 179 9 148 -5 308 140 46 42
90 80 98 84 8 5 117 13 241 17 723 27 730 27 821 -34 64 -43 89 -45 202 -10
73 22 95 25 174 20 50 -3 139 -17 199 -30 91 -19 113 -28 130 -49 64 -82 52
-76 146 -65 161 19 267 -15 373 -116 31 -31 63 -56 70 -55 9 0 9 2 0 6 -21 8
-15 20 12 27 17 4 23 11 19 24 -5 16 -5 16 9 0 17 -22 27 -23 27 -3 0 8 8 15
18 15 9 0 28 12 41 25 13 14 27 25 33 25 5 0 6 5 2 12 -4 7 -3 8 4 4 12 -7 54
29 44 38 -3 3 1 6 9 6 8 0 40 25 73 55 32 30 62 55 67 55 5 0 9 7 9 15 0 8 4
15 9 15 5 0 13 9 16 20 3 11 13 20 21 20 8 0 20 14 25 30 6 17 17 30 25 30 13
0 19 13 15 33 -1 5 8 11 19 14 11 3 20 8 20 12 0 4 20 29 45 55 25 27 42 53
39 58 -4 6 3 5 14 -1 25 -14 45 -14 37 -1 -3 5 4 19 15 30 11 11 18 26 14 32
-4 6 -3 8 3 5 12 -8 66 50 58 62 -2 5 4 11 15 14 11 3 20 9 19 14 -5 26 2 42
16 37 8 -4 15 -1 15 5 0 6 -4 11 -10 11 -5 0 -10 4 -10 10 0 5 8 7 18 4 30
-10 -50 55 -168 135 -361 245 -767 424 -1194 526 -252 60 -552 102 -766 107
l-125 3 -5 -210 c-3 -115 -9 -218 -13 -227 -13 -25 -38 -30 -58 -12 -17 16
-19 35 -19 236 l0 219 -62 -3 c-35 -1 -112 -6 -171 -9z m341 -1432 c28 -26 30
-84 3 -119 -11 -13 -23 -37 -27 -52 -7 -29 -38 -51 -55 -40 -7 4 -9 22 -5 46
5 31 3 39 -11 44 -10 3 -35 14 -56 25 -21 11 -42 17 -47 14 -6 -4 -10 -89 -10
-212 l0 -206 -105 -107 -105 -106 0 -271 0 -270 114 -84 c105 -77 114 -86 111
-114 -2 -23 -7 -29 -21 -27 -26 4 -105 59 -192 132 l-72 61 0 303 0 304 63 59
c34 33 81 78 105 100 l42 41 0 196 0 196 -147 0 c-82 0 -152 -4 -158 -8 -5 -4
-115 -113 -242 -243 l-233 -236 0 -101 c0 -91 -2 -102 -20 -112 -11 -6 -25 -8
-30 -5 -6 4 -10 59 -10 128 l0 122 258 258 259 258 209 2 c115 1 216 -2 226
-6 12 -6 19 -2 30 19 22 47 81 52 126 11z m-781 -14 c17 -22 17 -84 0 -107 -9
-12 -26 -18 -52 -18 -36 0 -47 -8 -132 -90 -77 -76 -99 -92 -135 -99 -24 -4
-154 -8 -290 -9 l-247 0 -38 -32 c-21 -17 -137 -130 -258 -249 -198 -196 -225
-219 -265 -228 -40 -10 -47 -8 -62 10 -10 12 -18 16 -18 10 0 -7 -9 -9 -24 -5
-17 4 -25 1 -30 -13 -6 -14 -4 -15 5 -6 8 8 20 8 39 1 24 -8 28 -14 24 -36 -9
-51 -11 -53 -51 -46 -78 13 -104 48 -79 107 20 49 72 66 127 42 37 -17 40 -17
66 0 15 10 137 127 273 260 l245 242 139 6 c77 4 206 7 289 7 l149 0 94 81
c90 78 93 82 96 127 2 38 8 49 28 60 31 16 91 8 107 -15z m-463 -442 c3 -5 2
-38 -3 -73 -7 -50 -6 -66 6 -79 7 -9 13 -20 12 -25 -1 -5 1 -17 6 -28 6 -14 2
-23 -16 -37 -43 -33 -81 -19 -99 37 -11 32 -10 38 9 58 12 13 21 36 21 54 l0
32 -97 1 c-54 0 -114 2 -133 4 -34 4 -43 -4 -271 -232 -130 -130 -246 -251
-258 -268 -20 -30 -21 -41 -21 -321 l0 -290 -36 -35 c-20 -18 -59 -61 -86 -94
-84 -101 -157 -175 -172 -175 -8 0 -21 7 -30 15 -20 20 -26 19 -26 -5 0 -11
-15 -37 -34 -58 l-34 -38 -4 -203 -3 -203 25 -20 c27 -22 90 -78 187 -170 l61
-58 286 0 c161 0 286 4 286 9 0 5 -36 42 -80 81 -61 55 -84 70 -92 62 -17 -17
-304 -15 -339 1 -47 21 -169 143 -180 179 -5 18 -9 75 -9 127 l0 94 103 104
c56 57 122 118 146 134 44 29 46 29 184 29 l139 0 -6 23 c-3 12 -6 29 -6 38 0
17 -27 31 -97 49 -24 6 -47 19 -53 30 -15 28 -13 588 3 620 16 33 421 430 439
430 30 0 117 -67 230 -178 118 -115 119 -116 163 -113 36 1 50 -3 70 -23 33
-33 34 -90 3 -123 -47 -50 -148 -14 -148 54 0 22 -23 50 -113 138 -62 61 -129
125 -150 143 l-38 33 -62 -57 c-34 -32 -124 -116 -199 -188 l-138 -131 0 -292
0 -292 26 -20 c32 -25 47 -26 84 -4 26 15 29 15 45 0 9 -10 23 -17 31 -17 8 0
23 -9 34 -20 25 -25 27 -105 4 -138 -15 -21 -20 -22 -203 -22 -219 0 -191 11
-338 -134 l-93 -91 0 -96 c0 -108 0 -107 85 -176 76 -61 82 -63 222 -63 l127
0 -59 60 c-56 57 -62 60 -107 60 -44 0 -52 4 -86 41 -45 51 -48 57 -27 65 11
4 28 -4 49 -25 26 -25 40 -31 74 -31 24 0 57 -6 75 -14 40 -17 373 -329 382
-357 5 -13 1 -27 -9 -37 -13 -14 -58 -16 -319 -18 -167 -1 -323 2 -346 6 -35
6 -58 23 -134 97 -51 49 -113 104 -139 121 -61 42 -63 52 -55 313 l6 206 -24
23 c-42 39 -33 110 16 135 44 23 81 18 128 -17 l44 -32 128 134 129 134 0 305
0 305 272 273 273 273 177 0 c97 0 179 -4 182 -9z m-232 -508 c18 -15 96 -89
173 -164 77 -76 162 -157 188 -181 80 -71 77 -52 77 -465 l1 -368 29 -29 c21
-20 30 -39 30 -60 -1 -80 -100 -112 -150 -49 -27 34 -25 65 5 101 l25 30 0
367 0 367 -147 147 c-181 180 -269 261 -285 261 -7 0 -52 -42 -100 -92 l-88
-93 0 -173 c0 -145 -2 -174 -15 -178 -8 -4 -22 -1 -30 6 -12 10 -15 45 -15
187 0 161 2 177 21 204 28 40 218 209 234 209 7 0 28 -12 47 -27z m-1007 -13
c3 -5 46 -10 95 -10 89 0 90 0 97 -27 4 -16 8 -136 8 -268 l0 -240 -29 -50
c-46 -79 -64 -95 -108 -95 -94 0 -122 122 -37 165 25 14 36 14 59 5 16 -7 34
-9 39 -5 7 4 11 84 11 232 l0 226 -96 -6 c-124 -8 -151 6 -128 67 7 18 79 23
89 6z m-10 -225 c49 -48 23 -133 -41 -138 -31 -2 -87 -56 -353 -339 -55 -59
-77 -70 -87 -44 -10 27 25 72 188 236 l164 166 -4 42 c-3 36 0 46 26 72 37 37
74 39 107 5z m1059 -67 c27 -43 24 -87 -10 -127 l-25 -30 -3 -358 -3 -357 65
-61 c35 -33 68 -71 73 -84 5 -13 12 -21 15 -18 4 3 6 149 5 324 -2 317 -2 318
-25 343 -31 34 -37 55 -26 86 24 61 94 82 144 43 36 -28 36 -85 1 -127 -25
-30 -25 -31 -25 -233 0 -312 -11 -520 -27 -526 -7 -3 -65 47 -138 120 l-125
125 0 367 0 367 -25 30 c-53 63 -16 138 69 138 36 0 48 -5 60 -22z m-1149
-328 c3 -6 -70 -91 -164 -190 l-169 -180 -7 -76 c-4 -41 -5 -162 -2 -267 4
-106 7 -220 7 -254 l0 -63 187 0 186 0 112 -110 111 -110 265 0 c145 0 270 -4
277 -9 8 -5 12 -17 10 -27 -3 -18 -18 -19 -278 -22 -151 -1 -284 0 -295 2 -12
3 -68 53 -125 111 l-104 105 -198 0 c-134 0 -199 4 -204 11 -11 18 -12 701 -1
723 16 32 217 245 289 307 67 58 91 69 103 49z m-126 -395 c52 -26 57 -91 11
-136 l-30 -30 -2 -167 -3 -167 -25 0 -25 0 -3 174 c-2 129 -6 179 -16 190 -45
52 -40 101 12 134 33 20 45 21 81 2z m858 -46 c6 -6 17 -27 24 -47 8 -28 59
-84 208 -228 174 -170 194 -193 182 -207 -7 -10 -20 -17 -28 -17 -7 0 -99 81
-203 180 l-189 180 -39 -6 c-47 -7 -76 6 -96 45 -44 84 66 162 141 100z m-652
-930 c35 -33 69 -59 77 -58 7 1 116 1 241 0 l228 -1 -3 -22 -3 -23 -252 -3
-251 -2 -44 35 c-23 19 -58 45 -75 57 -18 13 -33 28 -33 35 0 10 37 43 48 43
2 0 32 -27 67 -61z m4735 -929 c0 -20 -7 -20 -494 -20 l-494 0 -48 -34 c-134
-95 -254 -151 -254 -119 0 6 37 35 83 65 45 31 102 72 127 92 l45 36 518 0
c510 0 517 0 517 -20z m-1952 -92 c3 -22 -1 -28 -16 -28 -11 0 -26 -8 -33 -17
-13 -15 -12 -16 9 -11 12 4 22 2 22 -3 0 -5 -6 -9 -14 -9 -8 0 -26 -14 -40
-32 -31 -39 -43 -31 -28 19 6 20 9 39 6 42 -3 4 -42 6 -87 6 -70 0 -82 -3 -85
-17 -3 -13 3 -18 22 -18 19 0 27 -8 37 -35 9 -25 18 -34 33 -32 23 2 31 -21
21 -60 -5 -21 -10 -24 -33 -18 -38 9 -52 24 -52 53 0 18 -16 39 -52 73 -48 44
-51 49 -40 73 7 15 23 28 39 32 15 3 33 7 38 9 6 2 64 3 130 2 l120 -2 3 -27z
m1112 -12 c11 -14 63 -16 415 -16 367 0 403 -1 409 -17 4 -9 1 -20 -6 -25 -7
-4 -194 -8 -414 -8 l-402 0 -16 -25 c-23 -35 -92 -30 -118 9 -17 24 -8 75 14
87 56 30 89 29 118 -5z m-690 -122 c25 -25 79 -70 120 -99 41 -30 122 -92 179
-139 l104 -86 272 0 c149 0 275 -3 278 -6 3 -4 2 -15 -4 -25 -9 -18 -26 -19
-283 -19 -319 0 -261 -19 -481 161 -77 62 -171 136 -208 162 -68 49 -72 53
-61 81 11 28 38 18 84 -30z m203 11 c64 -53 204 -157 245 -182 36 -22 42 -23
395 -23 336 0 358 -1 355 -17 -3 -17 -30 -18 -365 -21 -198 -1 -372 2 -385 7
-12 5 -89 59 -170 120 -81 61 -159 116 -173 121 -35 13 -23 30 21 30 26 0 47
-10 77 -35z m253 -15 c27 -22 51 -40 54 -40 3 0 200 -1 438 -2 238 -1 435 -4
437 -8 2 -3 0 -12 -5 -20 -8 -13 -76 -15 -440 -18 -477 -3 -449 -6 -538 66
-33 27 -40 38 -31 48 18 22 33 17 85 -26z m-726 -281 c58 -112 144 -275 190
-361 47 -87 113 -210 148 -275 34 -65 69 -127 77 -137 29 -38 27 -5 -4 80 -35
97 -37 114 -16 114 18 0 24 -14 60 -135 15 -49 40 -121 57 -159 24 -55 27 -70
16 -77 -22 -14 -64 -10 -81 9 -8 9 -79 136 -157 282 -78 146 -159 294 -180
330 -63 109 -250 489 -250 508 0 22 10 34 24 29 6 -2 58 -95 116 -208z m245
-126 c95 -246 130 -356 121 -380 -10 -26 -19 -9 -91 162 -37 88 -75 174 -85
192 -21 36 -18 43 21 43 16 0 29 -7 34 -17z m284 -258 c12 -83 26 -128 108
-348 30 -82 57 -164 60 -183 6 -33 5 -34 -30 -34 -41 0 -35 -13 -143 301 -86
252 -94 339 -30 339 22 0 24 -6 35 -75z"/>
<path d="M13597 14608 c3 -13 2 -20 -2 -16 -11 10 -45 -46 -45 -73 0 -13 -8
-23 -21 -26 -17 -5 -20 -12 -17 -39 2 -19 -1 -35 -7 -38 -6 -2 -3 -16 8 -36
10 -18 15 -35 12 -38 -3 -3 -5 -1 -5 5 0 6 -12 19 -26 28 -15 10 15 -32 67
-91 547 -631 883 -1309 1043 -2104 38 -191 64 -383 76 -573 12 -186 16 -218
28 -215 8 2 171 -11 220 -18 30 -4 32 -2 33 29 11 497 -124 1162 -348 1712
-127 313 -236 514 -449 828 -195 287 -388 523 -541 659 -30 27 -31 28 -26 6z"/>
<path d="M13378 14269 c25 -29 27 -36 10 -42 -7 -2 -5 -3 4 -2 19 3 58 -29 58
-48 0 -6 -7 -2 -15 9 -11 17 -26 22 -64 22 -29 1 -55 -4 -63 -11 -7 -8 -19
-12 -26 -9 -6 2 -12 -1 -12 -7 0 -6 -8 -11 -17 -11 -19 -1 -75 -29 -58 -30 12
0 -53 -60 -66 -60 -5 0 -8 -5 -6 -12 1 -7 -4 -12 -11 -13 -7 0 -17 -7 -22 -15
-8 -13 -12 -13 -32 -1 -22 14 -22 13 -8 -5 8 -10 56 -66 105 -124 384 -445
636 -885 794 -1383 110 -344 150 -560 184 -992 l12 -150 120 -3 c66 -2 158 0
204 3 l84 7 -6 172 c-31 917 -419 1879 -1034 2568 -56 62 -114 124 -130 138
l-28 25 23 -26z"/>
<path d="M10710 13633 c-258 -267 -298 -309 -313 -333 -12 -18 -17 -46 -17
-103 l0 -79 -97 -91 c-54 -51 -115 -109 -135 -130 l-38 -38 0 -117 c0 -74 5
-126 13 -142 7 -14 56 -56 110 -95 l97 -70 0 -137 c0 -76 4 -138 8 -138 4 0 9
12 10 26 1 14 7 33 13 42 8 14 9 12 6 -10 -3 -19 0 -28 9 -28 8 0 14 8 15 18
0 9 3 12 5 5 3 -7 12 -9 21 -6 12 5 14 3 8 -7 -5 -9 -4 -11 3 -6 7 4 12 15 12
24 0 15 2 15 10 2 7 -11 10 -6 11 20 0 27 2 31 8 15 14 -35 21 37 21 211 0
173 5 188 43 146 14 -15 17 -42 17 -150 0 -128 10 -169 29 -120 7 17 10 18 10
6 1 -11 6 -15 16 -12 11 5 13 2 9 -10 -3 -9 -3 -16 1 -16 10 0 35 27 35 39 0
6 5 11 10 11 6 0 10 -11 10 -25 0 -14 4 -25 10 -25 6 0 10 140 12 368 l3 369
259 264 c142 145 266 276 277 290 l18 26 -50 -1 c-47 -1 -53 2 -94 45 -42 44
-47 47 -112 53 -37 3 -93 9 -123 12 l-55 5 -105 -108z m189 -66 c18 -23 18
-59 -1 -62 -24 -4 -73 -40 -98 -73 -12 -15 -56 -63 -98 -107 -43 -44 -94 -99
-115 -123 l-37 -42 0 -189 c0 -208 -3 -217 -57 -202 -37 11 -49 4 -58 -32 -9
-34 -49 -67 -82 -67 -31 0 -79 25 -87 45 -14 37 -6 76 21 101 29 27 36 27 161
8 l42 -6 0 158 c0 88 3 176 7 198 5 33 31 65 182 222 97 101 183 184 192 184
9 0 22 -6 28 -13z"/>
<path d="M11050 13328 c-151 -154 -280 -290 -287 -302 -14 -24 -17 -501 -3
-596 4 -30 8 -47 9 -38 2 28 23 68 32 62 5 -3 9 0 9 5 0 6 -4 11 -10 11 -22 0
-8 15 15 16 14 1 25 -3 25 -9 0 -6 6 -2 14 9 14 18 15 18 25 -6 7 -18 10 46
10 221 l1 245 89 87 c49 48 96 87 105 87 25 0 19 -34 -11 -67 -16 -16 -49 -52
-75 -81 l-48 -51 1 -143 c1 -163 7 -199 27 -144 7 20 11 40 8 45 -3 5 4 7 16
3 12 -3 19 -1 15 4 -3 6 3 15 14 22 12 8 19 9 19 1 0 -5 5 -7 10 -4 6 4 8 10
6 14 -3 4 -1 13 5 21 6 10 9 11 9 3 0 -7 4 -13 10 -13 5 0 10 28 12 62 3 61 3
62 56 105 48 39 58 43 108 43 40 0 54 4 52 12 -3 7 1 18 8 25 16 17 27 17 19
1 -4 -7 1 -4 9 6 9 11 14 28 11 37 -4 11 0 19 12 22 10 3 -12 5 -48 6 -85 1
-107 18 -138 104 -27 78 -25 121 5 125 19 3 25 -6 43 -67 26 -84 41 -101 90
-101 54 0 102 11 95 21 -3 5 0 9 6 9 16 0 30 44 16 52 -6 4 -11 18 -12 30 -1
13 -2 40 -2 60 -2 32 -6 37 -32 43 -37 8 -70 49 -70 87 0 34 39 78 70 78 29 0
76 -26 84 -45 11 -30 6 -82 -9 -95 -8 -7 -15 -15 -15 -19 0 -11 154 0 165 11
7 7 7 9 0 5 -6 -3 -17 -2 -24 2 -9 6 -5 10 13 15 18 4 24 11 19 23 -5 13 -2
15 15 11 19 -5 20 -4 11 14 -10 18 -8 19 11 13 15 -5 20 -3 16 3 -3 6 -20 13
-36 17 -40 9 -63 41 -49 68 8 14 7 23 -3 34 -26 25 -156 63 -216 62 l-57 0
-275 -281z"/>
<path d="M12269 13071 c21 -19 20 -26 -2 -22 -5 1 -6 -3 -3 -8 4 -5 1 -13 -5
-16 -5 -4 -8 -13 -5 -21 3 -7 1 -16 -4 -19 -5 -3 -6 -13 -3 -23 5 -14 3 -15
-8 -4 -7 6 -17 12 -23 12 -5 0 1 -8 12 -19 31 -26 49 -66 47 -103 -1 -18 -2
-92 -3 -164 -2 -137 -7 -153 -47 -138 -12 5 -15 28 -15 123 0 124 -9 221 -19
221 -4 0 -7 -12 -6 -27 0 -23 -4 -28 -22 -27 -12 0 -20 -3 -18 -6 2 -4 -7 -13
-20 -20 -14 -7 -25 -18 -25 -23 0 -6 -9 -2 -20 8 -19 17 -19 17 -8 -13 9 -24
9 -34 -1 -46 -20 -24 -37 -19 -60 18 -28 44 -51 65 -44 38 3 -13 -4 -24 -22
-36 -15 -10 -24 -13 -21 -7 14 22 -13 10 -33 -15 -25 -31 -20 -42 42 -102 41
-40 46 -43 66 -30 20 12 25 10 47 -15 l24 -28 0 -547 0 -547 -252 -248 c-139
-136 -262 -252 -273 -257 -11 -4 -137 -9 -279 -9 l-259 -2 -199 -194 c-109
-107 -213 -206 -231 -219 l-33 -25 -479 -6 -480 -6 -81 -80 c-81 -80 -81 -81
-76 -124 4 -37 1 -47 -21 -69 -38 -37 -89 -36 -129 4 -26 27 -30 36 -25 67 9
50 42 83 86 83 31 0 46 11 132 95 l96 95 470 0 470 0 39 29 c21 16 127 115
234 219 l195 191 271 1 271 0 189 183 c104 100 215 208 247 240 l59 57 -4 92
c-3 61 -9 93 -17 96 -7 2 -112 -97 -234 -221 -122 -123 -239 -238 -260 -256
l-38 -31 -239 0 c-243 0 -270 4 -238 37 13 12 54 14 236 13 l222 -1 232 227
c128 124 257 250 287 280 l53 54 -4 366 -3 365 -34 26 c-18 15 -43 36 -55 47
-12 12 -34 32 -49 45 l-26 24 -36 -39 c-30 -31 -36 -45 -33 -71 3 -28 2 -30
-14 -22 -29 16 -21 3 41 -66 74 -81 75 -85 69 -369 l-4 -214 -52 -59 c-28 -32
-131 -138 -230 -236 l-179 -179 -231 -3 c-139 -2 -237 -7 -249 -14 -14 -8 -14
-11 -3 -11 13 0 13 -2 0 -9 -8 -6 -18 -7 -22 -5 -5 3 -8 2 -7 -3 3 -20 -2 -27
-10 -14 -7 11 -12 6 -19 -20 -8 -25 -10 -28 -11 -11 -1 12 -5 22 -11 22 -6 0
-10 -28 -10 -65 0 -124 -58 -241 -184 -369 -44 -45 -79 -88 -77 -96 1 -12 0
-13 -7 -1 -6 7 -15 10 -22 6 -9 -6 -9 -10 1 -17 11 -8 10 -9 -2 -5 -9 3 -45
-6 -80 -20 -55 -22 -85 -26 -233 -33 -94 -4 -220 -5 -281 -3 -120 6 -111 6
-375 4 l-185 -1 -167 -172 -168 -172 0 -92 0 -91 90 -87 89 -86 230 0 229 0
97 76 c90 71 98 76 122 65 29 -13 29 -13 -26 -49 -22 -15 -71 -53 -110 -85
l-69 -58 -241 -6 -240 -6 -38 26 c-21 15 -73 61 -115 104 l-76 78 -4 123 -3
123 186 184 185 185 155 0 c160 0 229 7 229 21 0 5 -7 9 -15 9 -8 0 -14 3 -13
8 4 12 -45 62 -61 62 -13 0 -13 2 -2 9 22 14 -36 18 -216 14 l-167 -4 -218
-220 -218 -220 0 -173 0 -172 33 -31 c17 -17 89 -85 160 -152 l127 -121 128
-1 c70 -1 195 -2 277 -3 83 -1 164 1 180 5 18 3 100 60 195 135 91 72 183 142
205 157 l40 27 333 0 c321 -1 333 0 359 19 35 28 87 28 107 -1 32 -45 15 -99
-35 -117 -34 -12 -53 -5 -83 28 -19 21 -25 22 -348 20 l-329 -1 -72 -57 c-40
-32 -130 -103 -200 -159 l-128 -102 -329 0 -329 0 -113 115 c-131 133 -143
137 -204 78 l-38 -38 22 38 c27 47 28 93 2 132 -18 27 -20 47 -20 219 l0 189
238 239 237 238 187 0 c114 0 189 4 193 10 3 6 -1 10 -10 10 -9 0 -13 5 -10
10 4 6 1 18 -7 27 -11 14 -11 16 2 9 8 -4 5 1 -8 12 -15 14 -18 22 -10 25 7 3
3 6 -10 6 -13 1 -20 5 -17 11 12 20 -45 31 -103 20 -31 -5 -101 -10 -156 -10
-84 0 -107 -3 -135 -21 -18 -11 -150 -138 -292 -282 l-258 -262 -1 -249 0
-249 43 -41 c24 -22 99 -90 167 -151 68 -60 157 -140 198 -177 l75 -67 306 -3
c168 -2 326 -1 351 2 40 5 74 26 245 151 110 81 214 153 230 161 26 13 88 15
435 11 l405 -5 59 36 c33 20 89 61 125 90 36 29 77 60 92 69 22 15 104 17 765
22 406 3 763 8 792 11 50 5 54 8 106 72 29 37 86 103 125 147 99 111 130 176
141 301 5 55 9 151 10 215 l0 115 -77 2 c-97 3 -111 12 -255 166 l-107 114 -3
192 c-3 169 -1 194 13 203 9 6 24 7 34 3 17 -6 18 -20 12 -196 l-5 -190 27
-27 c82 -84 199 -192 218 -202 12 -6 49 -11 82 -11 l61 0 0 187 0 187 -45 46
-45 45 -5 120 c-4 66 -8 131 -11 143 -3 13 -44 65 -92 115 -153 160 -142 137
-142 294 l0 135 -131 174 c-78 104 -144 181 -161 190 -16 9 -62 22 -101 30
-39 8 -74 17 -79 20 -4 3 -8 42 -8 87 l-1 82 -95 85 c-53 47 -101 86 -107 88
-7 2 -1 -6 12 -17z m273 -475 c13 -31 5 -56 -20 -56 -10 0 -68 -51 -130 -113
l-112 -114 0 -462 0 -463 -160 -166 c-128 -134 -160 -173 -160 -195 0 -63 -59
-118 -110 -102 -32 10 -53 50 -46 87 9 47 33 68 80 69 39 2 48 9 191 156 l150
154 2 372 c2 205 3 416 3 471 l0 98 104 107 c64 66 108 119 112 137 8 35 20
44 57 44 19 0 31 -7 39 -24z m184 -169 c45 -39 32 -106 -28 -138 -12 -6 -29
-4 -54 6 l-37 15 -53 -46 -54 -46 0 -437 c0 -433 0 -439 -22 -467 -11 -16 -91
-100 -177 -186 -144 -146 -191 -181 -191 -143 0 8 77 94 172 190 l172 176 2
445 3 445 50 39 c28 22 60 59 72 83 45 89 92 110 145 64z m62 -219 c0 -18 3
-73 7 -123 l8 -90 122 -125 123 -125 6 -90 c10 -137 11 -249 2 -263 -5 -9 5
-12 37 -12 29 0 53 -7 68 -19 21 -16 22 -22 11 -45 -6 -14 -22 -31 -36 -37
-19 -9 -30 -7 -63 15 l-40 27 -11 127 c-6 70 -14 161 -17 203 l-6 76 -125 124
-124 124 0 77 c0 74 -1 78 -25 84 -52 13 -50 32 -47 -499 l2 -495 47 -38 c29
-24 48 -34 51 -26 6 20 57 14 79 -10 34 -39 36 -48 12 -68 -21 -19 -23 -19
-35 -2 -7 9 -14 24 -14 33 0 18 -27 45 -36 36 -3 -3 4 -24 16 -47 41 -81 20
-81 -64 0 -43 41 -84 81 -92 88 -12 11 -14 96 -12 525 l3 512 69 47 c38 27 73
48 77 48 4 0 7 -15 7 -32z m-279 -1149 c13 -24 13 -30 -7 -67 -12 -23 -19 -48
-16 -56 11 -28 57 -49 110 -50 36 -1 59 -7 73 -20 30 -27 27 -70 -5 -95 -52
-41 -114 -17 -114 45 0 28 -7 36 -51 64 l-52 32 -86 -86 -86 -86 -560 0 c-334
0 -574 -4 -595 -10 -26 -7 -83 -57 -219 -194 l-184 -184 224 -6 c123 -3 240
-6 259 -6 61 -2 104 -62 75 -106 -21 -32 -31 -30 -86 16 l-48 40 -718 0 -718
0 -51 -56 c-35 -39 -56 -55 -69 -52 -33 6 -28 32 15 81 82 93 45 87 566 87
l459 0 221 220 220 220 592 0 592 0 63 57 c99 91 110 110 82 133 -25 20 -18
66 12 90 36 28 83 24 102 -11z m621 -148 c11 -21 14 -189 4 -239 -7 -32 -109
-159 -125 -154 -5 1 -8 -4 -6 -10 1 -7 -4 -12 -10 -10 -7 1 -12 -4 -10 -10 1
-7 -4 -12 -10 -10 -7 1 -12 -3 -10 -9 1 -6 -25 -42 -58 -79 l-60 -68 -414 -1
-413 -1 -36 -31 c-28 -25 -41 -30 -65 -25 -71 14 -90 80 -38 135 40 43 80 42
117 -1 l27 -33 266 -1 c146 0 326 2 399 5 l133 6 122 129 c67 71 126 136 132
145 5 9 12 66 15 126 4 80 8 109 18 108 6 -2 12 2 12 8 0 6 -10 9 -22 7 -19
-2 -24 -10 -26 -45 -2 -24 -7 -43 -11 -43 -15 0 -24 90 -10 106 17 21 66 18
79 -5z m-200 -83 c-1 -54 -6 -102 -13 -114 -7 -12 -51 -58 -99 -103 l-88 -81
-567 -1 c-313 -1 -592 -1 -622 -1 -52 0 -75 13 -68 37 3 6 222 12 619 15 l616
5 73 65 c103 90 99 84 97 170 -2 83 3 100 33 100 17 0 19 -7 19 -92z m-1657
-246 c29 -27 81 -72 117 -101 36 -30 90 -77 121 -107 54 -51 58 -53 87 -42 44
17 82 -2 82 -40 0 -35 -16 -52 -51 -52 -34 0 -59 18 -326 246 -81 69 -136 95
-148 70 -2 -6 -2 0 1 14 8 31 32 60 51 60 8 0 38 -22 66 -48z"/>
<path d="M11705 12458 c4 -10 11 -18 16 -18 5 0 9 -5 9 -11 0 -6 -5 -9 -12 -7
-14 5 -48 -22 -48 -37 0 -5 5 -3 11 5 9 12 10 12 5 -3 -3 -10 -6 -21 -6 -23 0
-3 -4 -2 -10 1 -6 3 -10 -4 -10 -18 0 -13 -11 -41 -25 -61 -24 -35 -25 -44
-25 -184 l0 -146 -167 -167 -168 -167 -140 -8 c-77 -4 -135 -9 -128 -11 8 -3
7 -13 -6 -34 -10 -17 -16 -39 -14 -50 3 -12 0 -19 -8 -19 -8 0 -5 -6 7 -15 19
-14 19 -14 -1 -15 -17 0 -17 -2 -5 -10 8 -5 100 -10 207 -10 l192 0 215 218
216 217 0 228 c0 178 -3 234 -14 255 -17 32 -100 114 -91 90z"/>
<path d="M11530 12214 c0 -11 -6 -14 -20 -9 -12 4 -20 2 -20 -5 0 -6 -6 -10
-12 -8 -16 3 -58 -32 -58 -49 0 -7 -5 -13 -11 -13 -6 0 -8 9 -4 23 6 21 5 21
-9 4 -8 -11 -12 -26 -9 -35 4 -9 2 -13 -4 -9 -13 8 -65 -46 -60 -64 2 -8 2
-11 0 -6 -10 16 -24 6 -18 -13 4 -12 2 -20 -5 -20 -6 0 -8 5 -5 10 3 6 1 10
-5 10 -7 0 -9 -8 -5 -20 7 -21 -10 -28 -18 -7 -3 6 -4 -3 -3 -20 2 -18 0 -30
-4 -28 -11 7 -43 -32 -35 -44 3 -6 1 -11 -4 -11 -6 0 -11 -6 -11 -14 0 -8 -6
-16 -13 -19 -8 -3 -13 -16 -12 -28 2 -26 -15 -50 -29 -41 -5 3 -6 0 -2 -6 4
-7 -2 -22 -13 -33 -19 -21 -19 -23 -3 -35 16 -12 16 -13 -3 -13 -11 1 -33 -4
-50 -9 -25 -8 -13 -10 65 -11 l95 -1 153 153 152 152 0 118 c0 71 -4 117 -10
117 -5 0 -10 -7 -10 -16z"/>
<path d="M14841 10189 c-8 -24 -20 -64 -28 -87 -7 -24 -16 -60 -19 -80 -3 -21
-9 -41 -12 -47 -4 -5 -7 -14 -9 -20 -14 -60 -28 -101 -37 -107 -7 -5 -7 -8 2
-8 10 0 12 -13 8 -52 -3 -38 -2 -48 5 -35 6 9 7 22 4 27 -3 6 -1 10 5 10 6 0
8 5 5 10 -3 6 -1 10 4 10 6 0 11 6 11 14 0 8 5 27 12 43 6 15 12 30 12 33 1 3
6 19 12 35 20 54 43 129 50 160 19 95 21 115 8 115 -7 0 -14 5 -16 11 -2 7
-10 -8 -17 -32z"/>
<path d="M7876 7259 c5 -9 0 -10 -21 -5 -26 7 -26 6 -11 -10 13 -12 20 -14 29
-5 6 6 18 11 27 11 12 -1 12 -3 -3 -11 -17 -10 -16 -12 7 -30 13 -10 28 -19
33 -19 4 0 33 -16 63 -35 30 -19 62 -35 71 -35 10 0 19 -4 21 -9 2 -5 26 -20
55 -35 37 -18 51 -22 47 -11 -5 11 2 13 33 9 l38 -5 -30 15 c-88 44 -121 56
-138 50 -16 -5 -19 -3 -14 10 5 13 -9 24 -61 49 -37 17 -69 35 -72 39 -10 14
-82 40 -74 27z"/>
<path d="M4737 4913 c-9 -8 -9 -271 0 -476 l6 -157 311 2 311 3 3 295 c1 162
0 305 -3 318 l-5 22 -309 0 c-169 0 -311 -3 -314 -7z"/>
<path d="M14250 4600 l0 -320 318 2 317 3 3 318 2 317 -320 0 -320 0 0 -320z"/>
<path d="M15982 4603 l3 -318 310 0 310 0 0 315 0 315 -313 3 -312 2 2 -317z"/>
</g>
</svg>
